<?xml version="1.0" encoding="UTF-8"?>
<svg id="Capa_1" data-name="Capa 1" xmlns="http://www.w3.org/2000/svg" viewBox="0 0 1080 1920">
  <defs>
    <style>
      .cls-1 {
        fill: #bb9d74;
      }

      .cls-1, .cls-2, .cls-3, .cls-4, .cls-5, .cls-6, .cls-7, .cls-8 {
        stroke-width: 0px;
      }

      .cls-2 {
        fill: #005a99;
      }

      .cls-3 {
        fill: #00909f;
      }

      .cls-4 {
        fill: #edbd18;
      }

      .cls-9 {
        opacity: .9;
      }

      .cls-5 {
        fill: #734223;
      }

      .cls-6 {
        fill: #eff1f4;
      }

      .cls-7 {
        fill: #d1b474;
      }

      .cls-8 {
        fill: #d14c2b;
      }
    </style>
  </defs>
  <rect class="cls-1" x="-10.05" y="-14.98" width="1132.36" height="1960.66"/>
  <g class="cls-9">
    <path class="cls-3" d="M131.88,2168.56c-15.51-6.01-25-17.06-31.01-32.71-18.14-47.27-36.18-94.58-52-142.68-12.96-39.38-25.27-78.98-35.73-119.11.18-2.34.41-4.71-1.72-6.44-.27-1.06-.54-2.13-.8-3.18.35-20.6-5.38-40.3-9.7-60.11-13.36-61.32-21.86-123.33-28.17-185.7-3.31-32.65-4.36-65.41-4.39-98.19-.03-28-.76-56.11,1.48-83.96,4.03-50.16,9.88-100.11,21.98-149.23,13.79-55.98,32.67-109.8,61.1-160.11,2.67-4.73,7.53-8.75,6.69-15.12,4.73-5.91,9.96-11.49,14.07-17.8,5.5-8.44,10.22-7.05,16.96-1.17,22,19.2,41.28,40.81,58.51,64.27,22.48,30.61,41,63.55,57.13,97.92,19.31,41.14,34.24,83.83,45.66,127.71,25.24,96.95,35.12,195.76,35.28,295.75.09,55.59-2.7,111.01-7.81,166.34-8.65,93.54-24.52,185.93-43.38,277.9-3.88,18.93-13.65,31.81-29.34,41.44,0,0,.11-.03.11-.03-.57.22-1.16.39-1.76.53-24.02,8.5-48.37,10.6-73.17,3.69ZM128.11,2135.02v.24c3.23,7.22,10.18,9.44,16.76,10.67,17.32,3.23,34.48,2.1,50.87-5.05,7.62-3.33,12.31-8.63,14.22-17.31,13.61-61.79,25.11-123.94,33.79-186.62.73-5.28-.81-8.1-4.51-11.18-17.41-14.55-34.64-29.31-51.95-43.97-2.36-2-4.43-4.62-8.05-4.3-7.55-11.21-19.58-17.57-28.89-26.85-4.36-4.35-7.11-4.27-11.18.62-25.17,30.22-50.57,60.26-76.09,90.19-3.65,4.28-3.43,8.23-1.78,12.96,8.7,24.96,17.06,50.04,25.98,74.92,12.28,34.23,24.39,68.53,39.14,101.81-.07,1.57.17,3.01,1.69,3.89ZM-16.63,1451.85c4.47-.23,5.37-2.95,6.9-4.75,34.72-40.94,69.54-81.8,103.89-123.05,5.22-6.27,8.1-5.99,13.92-1,40.04,34.32,80.37,68.3,120.68,102.3,2.38,2.01,4.34,5.13,9.18,5.14-5.83-23.05-10.95-45.47-17.36-67.67-9.46-32.75-22.28-64.16-36.09-95.12-23.43-52.54-53.97-100.58-94.55-141.83-4.49-4.57-6.68-4.57-10.52.89-18.06,25.69-32.9,53.1-45.04,81.99-25.9,61.61-40.22,126.08-46.79,192.4-1.66,16.78-2.81,33.62-4.22,50.7ZM261.88,1649.29c.35-34.13-2.86-65.5-5.28-96.91-.36-4.62-2.67-7.43-5.9-10.17-44.79-37.9-89.6-75.77-134.21-113.88-5.38-4.6-8.3-5.14-13.33.88-36.84,44.04-74.02,87.81-111.34,131.44-5.16,6.03-6.74,12.23-6.31,19.89,1.51,27.12,6.46,53.85,8.67,80.88.22,2.71-.55,6.65,2.56,7.52,3.09.86,4.34-3.04,6.07-5.08,36.36-42.8,72.79-85.54,108.79-128.64,5.24-6.28,8.21-6.01,14.02-1,34.17,29.43,68.65,58.51,103.09,87.64,10.49,8.87,21.17,17.51,33.19,27.44ZM254.84,1838.25c2.2-26.67,4.43-53.18,5.93-79.77.47-8.4-2.06-13.44-8.33-18.21-8.03-6.11-15.48-12.97-23.19-19.49-17.8-15.05-36.15-29.47-53.82-44.63-14.32-12.28-28.64-24.65-42.63-37.34-4.47-4.06-7.32-4.16-11.32.87-5.68,7.15-11.97,13.8-17.81,20.88-27.72,33.6-56,66.74-84.34,99.82-4.32,5.04-6.07,9.88-4.5,16.3,5.84,23.84,11.48,47.73,17.23,71.6.65,2.68-.13,6.63,2.8,7.59,3.69,1.21,4.95-3.07,6.81-5.25,29.45-34.63,58.9-69.26,88.03-104.16,4.44-5.32,7.05-5.99,12.61-1.22,34.26,29.4,68.86,58.4,103.42,87.44,2.51,2.11,4.47,5.33,9.13,5.57Z"/>
    <path class="cls-2" d="M59.61,1112.01c.84,6.37-4.02,10.39-6.69,15.12-28.43,50.32-47.31,104.13-61.1,160.11-12.1,49.12-17.95,99.07-21.98,149.23-2.24,27.85-1.51,55.97-1.48,83.96.03,32.78,1.08,65.54,4.39,98.19,6.31,62.37,14.81,124.38,28.17,185.7,4.32,19.81,10.04,39.51,9.7,60.11-8.35-25.14-13.56-51.07-19.22-76.86-16.66-75.86-28.38-152.48-32.19-230.12-5.03-102.3,1.74-203.49,31.85-302.09,15.63-51.18,36.72-99.87,68.56-143.36Z"/>
    <path class="cls-7" d="M11.42,1867.62c2.13,1.73,1.9,4.1,1.72,6.44-1.88-1.81-2.09-4.05-1.72-6.44Z"/>
    <path class="cls-6" d="M-16.63,1451.85c1.41-17.08,2.56-33.91,4.22-50.7,6.57-66.32,20.89-130.79,46.79-192.4,12.14-28.88,26.99-56.3,45.04-81.99,3.84-5.46,6.02-5.46,10.52-.89,40.58,41.26,71.12,89.29,94.55,141.83,13.81,30.97,26.63,62.37,36.09,95.12,6.41,22.2,11.54,44.62,17.36,67.67-4.84,0-6.81-3.13-9.18-5.14-40.31-34-80.64-67.98-120.68-102.3-5.82-4.99-8.7-5.27-13.92,1-34.36,41.24-69.18,82.1-103.89,123.05-1.53,1.8-2.43,4.52-6.9,4.75Z"/>
    <path class="cls-4" d="M261.88,1649.29c-12.02-9.93-22.7-18.57-33.19-27.44-34.44-29.13-68.92-58.21-103.09-87.64-5.81-5.01-8.77-5.28-14.02,1-35.99,43.11-72.43,85.84-108.79,128.64-1.73,2.04-2.98,5.95-6.07,5.08-3.12-.87-2.34-4.81-2.56-7.52-2.2-27.03-7.15-53.76-8.67-80.88-.43-7.66,1.15-13.86,6.31-19.89,37.33-43.63,74.5-87.4,111.34-131.44,5.03-6.02,7.95-5.47,13.33-.88,44.61,38.11,89.42,75.98,134.21,113.88,3.24,2.74,5.55,5.55,5.9,10.17,2.42,31.42,5.64,62.78,5.28,96.91Z"/>
    <path class="cls-4" d="M254.84,1838.25c-4.66-.24-6.62-3.46-9.13-5.57-34.56-29.04-69.16-58.05-103.42-87.44-5.56-4.77-8.17-4.11-12.61,1.22-29.13,34.9-58.58,69.53-88.03,104.16-1.86,2.18-3.12,6.46-6.81,5.25-2.92-.96-2.15-4.9-2.8-7.59-5.74-23.86-11.39-47.75-17.23-71.6-1.57-6.43.19-11.27,4.5-16.3,28.34-33.08,56.62-66.22,84.34-99.82,5.84-7.08,12.13-13.73,17.81-20.88,4-5.03,6.85-4.93,11.32-.87,13.99,12.7,28.31,25.06,42.63,37.34,17.67,15.15,36.02,29.57,53.82,44.63,7.71,6.52,15.17,13.38,23.19,19.49,6.27,4.77,8.8,9.81,8.33,18.21-1.5,26.6-3.72,53.1-5.93,79.77Z"/>
    <path class="cls-6" d="M179.24,1877.48c3.62-.32,5.69,2.3,8.05,4.3,17.31,14.66,34.54,29.42,51.95,43.97,3.7,3.09,5.24,5.91,4.51,11.18-8.68,62.68-20.18,124.83-33.79,186.62-1.91,8.69-6.59,13.98-14.22,17.31-16.39,7.16-33.55,8.28-50.87,5.05-6.58-1.23-13.53-3.45-16.76-10.67,4.89-3.01,5.68-6.76,2.96-11.93-3.33-6.34-3.13-13.15-2.16-20.22,1.49-10.8,5.7-21.54,6.41-31.73,1.89-27.38,11.4-52.42,18.59-78.24,1.18-4.23,1.53-8.54,1.69-13,.43-11.86,1.47-23.71,2.77-35.5.72-6.53,6.04-11.45,6.43-18.53.97-17.24,4.36-33.98,14.43-48.62Z"/>
    <path class="cls-6" d="M179.24,1877.48c-10.07,14.64-13.46,31.38-14.43,48.62-.4,7.08-5.71,12-6.43,18.53-1.3,11.8-2.34,23.65-2.77,35.5-.16,4.46-.51,8.77-1.69,13-7.19,25.81-16.69,50.86-18.59,78.24-.7,10.19-4.92,20.93-6.41,31.73-.97,7.07-1.17,13.88,2.16,20.22,2.71,5.17,1.93,8.92-2.96,11.93,0,0,0-.23,0-.23.14-1.6-.27-2.97-1.69-3.89-14.75-33.28-26.86-67.58-39.14-101.81-8.93-24.88-17.28-49.96-25.98-74.92-1.65-4.73-1.87-8.68,1.78-12.96,25.52-29.93,50.92-59.97,76.09-90.19,4.07-4.89,6.82-4.97,11.18-.62,9.31,9.28,21.34,15.65,28.89,26.85Z"/>
  </g>
  <g>
    <path class="cls-8" d="M303.67,2130.28c-10.04-5.64-15.47-14.15-18.05-25.48-7.8-34.2-15.52-68.42-21.65-102.96-5.02-28.28-9.57-56.64-12.8-85.19.35-1.59.75-3.19-.55-4.59-.08-.76-.16-1.51-.24-2.26,2.26-14.09.27-28.17-.75-42.17-3.14-43.37-2.87-86.73-1.08-130.12.94-22.72,3.43-45.29,6.63-67.77,2.73-19.2,4.99-38.56,9.26-57.44,7.69-34.01,16.61-67.69,29.73-100.19,14.95-37.04,33.19-72.09,57.63-103.81,2.3-2.98,6.02-5.26,6.07-9.71,3.82-3.59,7.96-6.9,11.4-10.82,4.6-5.25,7.7-3.83,11.74.86,13.2,15.33,24.3,32.04,33.81,49.83,12.41,23.2,21.88,47.61,29.57,72.76,9.2,30.11,15.25,60.85,18.77,92.07,7.79,68.97,4.86,137.7-4.85,206.29-5.4,38.13-12.75,75.87-21.7,113.31-15.12,63.3-35.08,125.11-57.05,186.33-4.52,12.6-12.49,20.47-24.19,25.54,0,0,.08,0,.08,0-.42.09-.83.16-1.26.19-17.31,3.47-34.21,2.52-50.54-4.66ZM304.38,2106.9l-.03.16c1.51,5.27,6.06,7.48,10.45,8.96,11.56,3.92,23.44,4.83,35.38,1.53,5.56-1.53,9.29-4.71,11.45-10.48,15.4-41.04,29.4-82.53,41.5-124.67,1.02-3.55.24-5.63-2-8.11-10.51-11.69-20.87-23.5-31.31-35.26-1.42-1.6-2.59-3.6-5.1-3.74-4.07-8.43-11.7-13.97-17.17-21.25-2.57-3.41-4.46-3.63-7.73-.68-20.23,18.25-40.6,36.36-61.04,54.38-2.92,2.58-3.16,5.31-2.49,8.71,3.52,17.97,6.78,36,10.46,53.94,5.06,24.68,10,49.39,16.84,73.67-.2,1.07-.18,2.08.78,2.84ZM272.22,1624.16c3.09.28,3.97-1.49,5.2-2.58,27.83-24.67,55.72-49.27,83.34-74.18,4.19-3.78,6.14-3.31,9.64.68,24.09,27.47,48.41,54.73,72.72,82.01,1.43,1.61,2.47,3.95,5.79,4.42-1.73-16.38-3.04-32.26-5.26-48.11-3.27-23.39-8.98-46.19-15.41-68.78-10.91-38.34-27.13-74.28-50.91-106.56-2.63-3.57-4.13-3.79-7.3-.42-14.91,15.84-27.78,33.19-38.94,51.8-23.82,39.71-39.97,82.52-50.99,127.36-2.79,11.35-5.23,22.78-7.87,34.36ZM443.83,1786.92c3.59-23.37,4.47-45.2,5.89-66.98.21-3.21-1.1-5.36-3.05-7.56-26.99-30.39-54.01-60.76-80.86-91.28-3.24-3.68-5.19-4.34-9.23-.71-29.59,26.59-59.39,52.95-89.27,79.21-4.13,3.63-5.82,7.72-6.28,13.02-1.62,18.75-.86,37.56-2,56.32-.11,1.88-1.03,4.5,1.02,5.41,2.03.9,3.27-1.66,4.66-2.89,29.14-25.78,58.32-51.51,87.24-77.54,4.21-3.79,6.22-3.31,9.71.69,20.54,23.54,41.33,46.87,62.09,70.23,6.32,7.11,12.8,14.09,20.07,22.08ZM420.45,1915.82c4.13-18.08,8.26-36.04,11.9-54.13,1.15-5.71-.09-9.42-3.92-13.31-4.9-4.98-9.34-10.41-13.99-15.64-10.73-12.07-21.9-23.76-32.53-35.89-8.61-9.83-17.22-19.72-25.57-29.8-2.67-3.22-4.61-3.57-7.85-.52-4.6,4.34-9.57,8.29-14.27,12.57-22.31,20.32-44.96,40.27-67.65,60.17-3.45,3.03-5.14,6.18-4.69,10.74,1.66,16.92,3.19,33.86,4.78,50.79.18,1.9-.74,4.53,1.17,5.48,2.41,1.19,3.7-1.62,5.19-2.93,23.6-20.86,47.2-41.71,70.6-62.79,3.57-3.22,5.42-3.42,8.77.4,20.61,23.52,41.49,46.81,62.34,70.13,1.52,1.69,2.55,4.09,5.71,4.72Z"/>
    <path class="cls-5" d="M357.89,1398.58c-.05,4.45-3.78,6.73-6.07,9.71-24.44,31.72-42.67,66.77-57.63,103.81-13.12,32.5-22.04,66.18-29.73,100.19-4.27,18.88-6.53,38.23-9.26,57.44-3.2,22.48-5.69,45.05-6.63,67.77-1.8,43.39-2.06,86.76,1.08,130.12,1.01,14.01,3.01,28.08.75,42.17-3.25-18.06-4.28-36.36-5.63-54.6-3.97-53.66-4.48-107.36.53-160.98,6.6-70.65,21.18-139.38,51.52-204.05,15.75-33.57,34.99-64.89,61.1-91.58Z"/>
    <path class="cls-7" d="M250.62,1912.05c1.29,1.4.9,3,.55,4.59-1.11-1.42-1.04-2.98-.55-4.59Z"/>
    <path class="cls-5" d="M272.22,1624.16c2.64-11.57,5.08-23.01,7.87-34.36,11.02-44.84,27.17-87.64,50.99-127.36,11.16-18.62,24.04-35.96,38.94-51.8,3.17-3.37,4.67-3.15,7.3.42,23.78,32.28,40,68.22,50.91,106.56,6.43,22.59,12.14,45.39,15.41,68.78,2.22,15.85,3.53,31.73,5.26,48.11-3.32-.48-4.36-2.82-5.79-4.42-24.3-27.28-48.63-54.54-72.72-82.01-3.5-3.99-5.45-4.47-9.64-.68-27.61,24.91-55.51,49.51-83.34,74.18-1.22,1.09-2.11,2.86-5.2,2.58Z"/>
    <path class="cls-4" d="M443.83,1786.92c-7.27-7.99-13.75-14.97-20.07-22.08-20.76-23.36-41.55-46.69-62.09-70.23-3.49-4-5.5-4.48-9.71-.69-28.92,26.03-58.11,51.76-87.24,77.54-1.39,1.23-2.63,3.79-4.66,2.89-2.05-.9-1.13-3.53-1.02-5.41,1.14-18.76.38-37.57,2-56.32.46-5.3,2.15-9.39,6.28-13.02,29.89-26.26,59.68-52.62,89.27-79.21,4.04-3.63,5.99-2.97,9.23.71,26.85,30.52,53.86,60.89,80.86,91.28,1.95,2.2,3.26,4.35,3.05,7.56-1.42,21.78-2.3,43.61-5.89,66.98Z"/>
    <path class="cls-4" d="M420.45,1915.82c-3.17-.62-4.2-3.02-5.71-4.72-20.85-23.31-41.73-46.6-62.34-70.13-3.35-3.82-5.2-3.62-8.77-.4-23.4,21.07-47,41.93-70.6,62.79-1.49,1.31-2.78,4.13-5.19,2.93-1.91-.95-.99-3.57-1.17-5.48-1.6-16.93-3.12-33.87-4.78-50.79-.45-4.56,1.23-7.71,4.69-10.74,22.69-19.9,45.33-39.85,67.65-60.17,4.7-4.28,9.67-8.23,14.27-12.57,3.24-3.06,5.18-2.71,7.85.52,8.35,10.08,16.95,19.97,25.57,29.8,10.63,12.13,21.8,23.82,32.53,35.89,4.65,5.23,9.09,10.67,13.99,15.64,3.83,3.89,5.07,7.6,3.92,13.31-3.64,18.09-7.77,36.05-11.9,54.13Z"/>
    <path class="cls-5" d="M364.74,1935.3c-8.34,9.05-12.32,20.2-14.67,31.93-.97,4.82-5.1,7.67-6.23,12.08-2.05,7.96-3.93,15.99-5.39,24.08-.55,3.04-1.21,5.97-2.44,8.75-7.46,17-16.44,33.24-20.43,51.83-1.48,6.92-5.43,13.87-7.51,21.13-1.36,4.75-2.17,9.4-.51,14.08,1.35,3.81.45,6.31-3.21,7.89,0,0,.03-.16.03-.16.25-1.09.11-2.06-.78-2.84-6.85-24.27-11.79-48.99-16.84-73.67-3.68-17.94-6.94-35.96-10.46-53.94-.67-3.41-.43-6.14,2.49-8.71,20.44-18.02,40.81-36.12,61.04-54.38,3.27-2.95,5.16-2.74,7.73.68,5.47,7.28,13.1,12.83,17.17,21.25Z"/>
  </g>
</svg>